<svg width="162" height="198" viewBox="0 0 162 198" fill="none" xmlns="http://www.w3.org/2000/svg">
<g filter="url(#filter0_ddddd_4002_14704)">
<rect x="21" y="4" width="120" height="120" rx="60" fill="#FFCE5C"/>
<path fill-rule="evenodd" clip-rule="evenodd" d="M111 39C113.761 39 116 41.2386 116 44L116 59C116 61.7614 113.761 64 111 64C108.239 64 106 61.7614 106 59L106 44C106 41.2386 108.239 39 111 39Z" fill="#4F3422"/>
<path fill-rule="evenodd" clip-rule="evenodd" d="M51 39C53.7614 39 56 41.2386 56 44L56 59C56 61.7614 53.7614 64 51 64C48.2386 64 46 61.7614 46 59L46 44C46 41.2386 48.2386 39 51 39Z" fill="#4F3422"/>
<path fill-rule="evenodd" clip-rule="evenodd" d="M46 84C46 81.2386 48.2386 79 51 79H111C113.761 79 116 81.2386 116 84C116 86.7614 113.761 89 111 89H51C48.2386 89 46 86.7614 46 84Z" fill="#4F3422"/>
</g>
<defs>
<filter id="filter0_ddddd_4002_14704" x="-1.90735e-06" y="0" width="162" height="198" filterUnits="userSpaceOnUse" color-interpolation-filters="sRGB">
<feFlood flood-opacity="0" result="BackgroundImageFix"/>
<feColorMatrix in="SourceAlpha" type="matrix" values="0 0 0 0 0 0 0 0 0 0 0 0 0 0 0 0 0 0 127 0" result="hardAlpha"/>
<feOffset/>
<feColorMatrix type="matrix" values="0 0 0 0 1 0 0 0 0 0.807843 0 0 0 0 0.360784 0 0 0 0.1 0"/>
<feBlend mode="normal" in2="BackgroundImageFix" result="effect1_dropShadow_4002_14704"/>
<feColorMatrix in="SourceAlpha" type="matrix" values="0 0 0 0 0 0 0 0 0 0 0 0 0 0 0 0 0 0 127 0" result="hardAlpha"/>
<feOffset dy="3"/>
<feGaussianBlur stdDeviation="3.5"/>
<feColorMatrix type="matrix" values="0 0 0 0 1 0 0 0 0 0.807843 0 0 0 0 0.360784 0 0 0 0.1 0"/>
<feBlend mode="normal" in2="effect1_dropShadow_4002_14704" result="effect2_dropShadow_4002_14704"/>
<feColorMatrix in="SourceAlpha" type="matrix" values="0 0 0 0 0 0 0 0 0 0 0 0 0 0 0 0 0 0 127 0" result="hardAlpha"/>
<feOffset dy="13"/>
<feGaussianBlur stdDeviation="6.5"/>
<feColorMatrix type="matrix" values="0 0 0 0 1 0 0 0 0 0.807843 0 0 0 0 0.360784 0 0 0 0.09 0"/>
<feBlend mode="normal" in2="effect2_dropShadow_4002_14704" result="effect3_dropShadow_4002_14704"/>
<feColorMatrix in="SourceAlpha" type="matrix" values="0 0 0 0 0 0 0 0 0 0 0 0 0 0 0 0 0 0 127 0" result="hardAlpha"/>
<feOffset dy="30"/>
<feGaussianBlur stdDeviation="9"/>
<feColorMatrix type="matrix" values="0 0 0 0 1 0 0 0 0 0.807843 0 0 0 0 0.360784 0 0 0 0.05 0"/>
<feBlend mode="normal" in2="effect3_dropShadow_4002_14704" result="effect4_dropShadow_4002_14704"/>
<feColorMatrix in="SourceAlpha" type="matrix" values="0 0 0 0 0 0 0 0 0 0 0 0 0 0 0 0 0 0 127 0" result="hardAlpha"/>
<feOffset dy="53"/>
<feGaussianBlur stdDeviation="10.5"/>
<feColorMatrix type="matrix" values="0 0 0 0 1 0 0 0 0 0.807843 0 0 0 0 0.360784 0 0 0 0.01 0"/>
<feBlend mode="normal" in2="effect4_dropShadow_4002_14704" result="effect5_dropShadow_4002_14704"/>
<feBlend mode="normal" in="SourceGraphic" in2="effect5_dropShadow_4002_14704" result="shape"/>
</filter>
</defs>
</svg>
